<!--
 realm.rd, Scribble the plans, spill the thoughts.
 Copyright (C) 2025 Jayant Hegde Kageri <https://jayantkageri.in/>

 This program is free software: you can redistribute it and/or modify
 it under the terms of the GNU Affero General Public License as
 published by the Free Software Foundation, either version 3 of the
 License, or any later version.

 This program is distributed in the hope that it will be useful,
 but WITHOUT ANY WARRANTY; without even the implied warranty of
 MERCHANTABILITY or FITNESS FOR A PARTICULAR PURPOSE.  See the
 GNU Affero General Public License for more details.

 You should have received a copy of the GNU Affero General Public License
 along with this program.  If not, see <https://www.gnu.org/licenses/>.
 -->

<svg viewBoxSize="575" data-root-id="0295750725182" xmlns="http://www.w3.org/2000/svg"
    xmlns:xlink="http://www.w3.org/1999/xlink" xmlnsSerif="http://www.serif.com/"
    viewBox="140.04429626464844 78.59529876708984 1719.912353515625 1842.8104248046875" version="1.1"
    xml:space="preserve" height="435.55196697065816" width="406.504793623723" y="0" x="0" preserveAspectRatio="xMinYMin"
    zoom="1" editorType="buyer" data-layer-role="icon"
    style="fill-rule: evenodd; clip-rule: evenodd; stroke-linejoin: round; stroke-miterlimit: 2; position: absolute; height: 435.552px; width: 406.505px; top: 0px; left: 0px;">
    <path transform="matrix(1.19533,0,0,1.19533,-309.401,-107.667)"
        d="M831.773,1146.01C830.793,1145.03 829.203,1145.03 828.223,1146.01C805.225,1169.01 566.04,1408.19 543.041,1431.19C542.061,1432.17 540.472,1432.17 539.492,1431.19C522.851,1414.55 394.417,1286.12 377.775,1269.47C377.305,1269 377.04,1268.37 377.04,1267.7C377.04,1267.03 377.305,1266.4 377.775,1265.92C419.555,1224.15 1185.61,458.088 1249.87,393.831C1250.59,393.114 1250.8,392.034 1250.41,391.096C1250.03,390.158 1249.11,389.547 1248.09,389.547C1173.15,389.547 427.34,389.547 378.51,389.547C377.845,389.547 377.206,389.282 376.736,388.812C376.265,388.341 376.001,387.703 376.001,387.037L376.001,158.335C376.001,156.949 377.124,155.825 378.51,155.825C442.604,155.825 1713.69,155.825 1812.35,155.825C1813.36,155.825 1814.28,156.437 1814.67,157.375C1815.06,158.312 1814.84,159.392 1814.12,160.11C1783.56,190.677 1599.47,374.765 1589.01,385.224C1588.7,385.528 1588.48,385.905 1588.37,386.32C1588.25,386.724 1588.1,387.269 1587.95,387.797C1587.66,388.832 1586.72,389.547 1585.64,389.547C1585.46,389.547 1585.28,389.547 1585.14,389.547C1584.85,389.547 1584.57,389.661 1584.37,389.865C1569.4,404.831 1031.92,942.315 997.039,977.194C996.568,977.665 996.304,978.303 996.304,978.969C996.304,979.634 996.568,980.273 997.039,980.743C1034.47,1018.17 1652.01,1635.71 1709.51,1693.21C1710.23,1693.93 1710.44,1695.01 1710.05,1695.95C1709.66,1696.89 1708.75,1697.5 1707.73,1697.5C1664.41,1697.5 1402.87,1697.5 1384.3,1697.5C1383.63,1697.5 1383,1697.23 1382.53,1696.76C1360.82,1675.05 865.231,1179.47 831.773,1146.01Z"
        name="Layer %{number}" zoom="1" data-layer-id="7005679425182"
        style="fill: rgb(255, 255, 255); fill-opacity: 1;"></path>
    <path transform="matrix(1.19533,0,0,1.19533,-309.401,-107.667)"
        d="M883.232,541.023C884.247,541.023 885.162,541.634 885.55,542.572C885.939,543.51 885.724,544.589 885.006,545.307C838.429,591.885 426.863,1003.45 380.285,1050.03C379.567,1050.75 378.488,1050.96 377.55,1050.57C376.612,1050.18 376.001,1049.27 376.001,1048.25C376.001,993.127 376.001,579.601 376.001,543.532C376.001,542.146 377.124,541.023 378.51,541.023L883.232,541.023ZM1132.05,1693.21C1132.76,1693.93 1132.98,1695.01 1132.59,1695.95C1132.2,1696.89 1131.29,1697.5 1130.27,1697.5C1086.95,1697.5 825.404,1697.5 806.838,1697.5C806.172,1697.5 805.534,1697.23 805.063,1696.76C794.2,1685.9 666.336,1558.04 649.724,1541.42C649.254,1540.95 648.989,1540.31 648.989,1539.65C648.989,1538.98 649.254,1538.35 649.724,1537.87C666.366,1521.23 794.8,1392.8 811.441,1376.16C812.421,1375.18 814.01,1375.18 814.99,1376.16C838.84,1400.01 1095.63,1656.8 1132.05,1693.21Z"
        name="Layer %{number}" zoom="1" data-layer-id="7730221325183" style="fill: rgb(222, 58, 58); fill-opacity: 1;">
    </path>
</svg>